<svg width="112" height="103" viewBox="0 0 112 103" fill="none" xmlns="http://www.w3.org/2000/svg">
<path fill-rule="evenodd" clip-rule="evenodd" d="M23.4515 33C24.085 33.6334 24.085 34.6605 23.4515 35.294L2.76917 55.9763C2.13568 56.6098 1.1086 56.6098 0.475114 55.9763C-0.158371 55.3428 -0.158371 54.3158 0.475114 53.6823L21.1574 33C21.7909 32.3665 22.818 32.3665 23.4515 33ZM87.9085 33C88.542 32.3665 89.5691 32.3665 90.2026 33L110.885 53.6823C111.518 54.3158 111.518 55.3428 110.885 55.9763C110.251 56.6098 109.224 56.6098 108.591 55.9763L87.9085 35.294C87.275 34.6605 87.275 33.6334 87.9085 33Z" fill="url(#paint0_linear)"/>
<path fill-rule="evenodd" clip-rule="evenodd" d="M87.6768 35.1203H23.6022L23.6022 99.1949H87.6768V35.1203ZM23.6022 31.876C21.8104 31.876 20.3579 33.3285 20.3579 35.1203V99.1949C20.3579 100.987 21.8104 102.439 23.6022 102.439H87.6768C89.4686 102.439 90.9211 100.987 90.9211 99.1949V35.1203C90.9211 33.3285 89.4686 31.876 87.6768 31.876H23.6022Z" fill="url(#paint1_linear)"/>
<path fill-rule="evenodd" clip-rule="evenodd" d="M31.0162 60.425L21.2819 35.7148L24.3004 34.5257L34.0347 59.2359C34.2789 59.8559 34.8775 60.2635 35.5439 60.2635H76.1406C76.807 60.2635 77.4056 59.8559 77.6498 59.2359L87.3841 34.5257L90.4026 35.7148L80.6683 60.425C79.9356 62.2851 78.1398 63.5078 76.1406 63.5078H35.5439C33.5447 63.5078 31.7489 62.2851 31.0162 60.425Z" fill="url(#paint2_linear)"/>
<path d="M59.2568 14.0326C57.9168 14.0326 56.6438 14.7323 55.8397 15.6865C55.0357 14.6687 53.7627 14.0326 52.4227 14.0326C50.0776 14.0326 48.1346 15.8774 48.1346 18.1039C48.1346 22.5568 55.0357 26.6917 55.3707 26.8825C55.5047 26.9461 55.6387 27.0097 55.8397 27.0097C56.0407 27.0097 56.1748 26.9461 56.3088 26.8825C56.5768 26.6917 63.5449 22.4932 63.5449 18.1039C63.5449 15.8138 61.6019 14.0326 59.2568 14.0326Z" fill="url(#paint3_linear)"/>
<path d="M72.2337 29.0374C73.328 26.7204 73.9399 24.1309 73.9399 21.3984C73.9399 11.5071 65.9214 3.48867 56.0301 3.48867C46.1388 3.48867 38.1203 11.5071 38.1203 21.3984C38.1203 24.1309 38.7322 26.7204 39.8265 29.0374H36.2974C35.3795 26.668 34.8761 24.092 34.8761 21.3984C34.8761 9.71538 44.347 0.244385 56.0301 0.244385C67.7132 0.244385 77.1842 9.71538 77.1842 21.3984C77.1842 24.092 76.6807 26.668 75.7628 29.0374H72.2337Z" fill="url(#paint4_linear)"/>
<defs>
<linearGradient id="paint0_linear" x1="55.68" y1="0.244385" x2="55.68" y2="102.439" gradientUnits="userSpaceOnUse">
<stop offset="0.237569" stop-color="#78D600"/>
<stop offset="0.834254" stop-color="#135EC7"/>
</linearGradient>
<linearGradient id="paint1_linear" x1="55.68" y1="0.244385" x2="55.68" y2="102.439" gradientUnits="userSpaceOnUse">
<stop offset="0.237569" stop-color="#78D600"/>
<stop offset="0.834254" stop-color="#135EC7"/>
</linearGradient>
<linearGradient id="paint2_linear" x1="55.68" y1="0.244385" x2="55.68" y2="102.439" gradientUnits="userSpaceOnUse">
<stop offset="0.237569" stop-color="#78D600"/>
<stop offset="0.834254" stop-color="#135EC7"/>
</linearGradient>
<linearGradient id="paint3_linear" x1="55.68" y1="0.244385" x2="55.68" y2="102.439" gradientUnits="userSpaceOnUse">
<stop offset="0.237569" stop-color="#78D600"/>
<stop offset="0.834254" stop-color="#135EC7"/>
</linearGradient>
<linearGradient id="paint4_linear" x1="55.68" y1="0.244385" x2="55.68" y2="102.439" gradientUnits="userSpaceOnUse">
<stop offset="0.237569" stop-color="#78D600"/>
<stop offset="0.834254" stop-color="#135EC7"/>
</linearGradient>
</defs>
</svg>
